<svg color="white" height="512pt" viewBox="-46 0 512 512" width="512pt" xmlns="http://www.w3.org/2000/svg"><path d="m45 512h375v-452h-30v-60h-345c-24.8125 0-45 20.1875-45 45v422c0 24.8125 20.1875 45 45 45zm-15-45v-379.578125c4.695312 1.664063 9.742188 2.578125 15 2.578125h15v392h-15c-8.269531 0-15-6.730469-15-15zm360 15h-300v-392h150v163.027344l60-40 60 40v-163.027344h30zm-120-392h60v106.972656l-30-20-30 20zm-225-60h315v30c-17.984375 0-302.570312 0-315 0-8.269531 0-15-6.730469-15-15s6.730469-15 15-15zm0 0"/></svg>